# xmcd CD database file
#
# Track frame offsets:
#	150
#	16066
#	31399
#	49102
#	64227
#	79554
#	92586
#	110166
#	127360
#	141566
#	156462
#	169746
#	185482
#	203024
#
# Disc length: 2980 seconds
#
# Revision: 9
# Processed by: cddbd v1.5.2PL0 Copyright (c) Steve Scherf et al.
# Submitted via: CDex 1.51
#
DISCID=c80ba20e
DTITLE=Christina Stürmer - Lebe lauter
DYEAR=2006
DGENRE=Rock
TTITLE0=Nie genug
TTITLE1=Lebe lauter
TTITLE2=Die Welt
TTITLE3=Ohne dich
TTITLE4=Revolution
TTITLE5=Augenblick am Tag
TTITLE6=Seite Eins
TTITLE7=Scherbenmeer
TTITLE8=Unsere besten Tage
TTITLE9=An Sommertagen
TTITLE10=Sonne hinter dem Nebel
TTITLE11=Um bei dir zu sein
TTITLE12=Reine Nebensache
TTITLE13=Mitten unterm Jahr
EXTD=YEAR: 2006
EXTT0=
EXTT1=
EXTT2=
EXTT3=
EXTT4=
EXTT5=
EXTT6=
EXTT7=
EXTT8=
EXTT9=
EXTT10=
EXTT11=
EXTT12=
EXTT13=
PLAYORDER=
